<?xml version="1.0" encoding="UTF-8" standalone="no"?>
<!-- Created with Inkscape (http://www.inkscape.org/) -->

<svg
   width="1267.202"
   height="557.71698"
   viewBox="0 0 335.28054 147.56262"
   version="1.1"
   id="svg1"
   inkscape:version="1.4.2 (ebf0e940d0, 2025-05-08)"
   sodipodi:docname="capsule_art.svg"
   inkscape:export-filename="capsule_art.png"
   inkscape:export-xdpi="96"
   inkscape:export-ydpi="96"
   xmlns:inkscape="http://www.inkscape.org/namespaces/inkscape"
   xmlns:sodipodi="http://sodipodi.sourceforge.net/DTD/sodipodi-0.dtd"
   xmlns="http://www.w3.org/2000/svg"
   xmlns:svg="http://www.w3.org/2000/svg">
  <sodipodi:namedview
     id="namedview1"
     pagecolor="#ffffff"
     bordercolor="#000000"
     borderopacity="0.25"
     inkscape:showpageshadow="2"
     inkscape:pageopacity="0.0"
     inkscape:pagecheckerboard="0"
     inkscape:deskcolor="#d1d1d1"
     inkscape:document-units="mm"
     inkscape:zoom="0.51936729"
     inkscape:cx="734.54761"
     inkscape:cy="387.97207"
     inkscape:window-width="1536"
     inkscape:window-height="792"
     inkscape:window-x="0"
     inkscape:window-y="0"
     inkscape:window-maximized="1"
     inkscape:current-layer="layer1" />
  <defs
     id="defs1" />
  <g
     inkscape:label="Layer 1"
     inkscape:groupmode="layer"
     id="layer1">
    <g
       id="g1"
       transform="translate(-64.941818,-14.33427)">
      <g
         id="g3"
         transform="matrix(0.07937474,0,0,0.07937474,-0.71864043,-158.03453)">
        <path
           id="path79"
           d="m 3287.523,2714.38 c 126.891,36.995 251.239,82.642 371.84,136.931"
           style="fill:none;stroke:#ffffff;stroke-width:46.7672;stroke-linecap:round;stroke-linejoin:round;stroke-miterlimit:4.4;stroke-dasharray:none;stroke-opacity:1"
           transform="scale(1.3333333,1.3332467)" />
        <path
           id="path80"
           d="m 959.402,2999.797 c 627.961,-377.7 1400.129,-490.395 2114.793,-339.006"
           style="fill:none;stroke:#ffffff;stroke-width:46.7672;stroke-linecap:round;stroke-linejoin:round;stroke-miterlimit:4.4;stroke-dasharray:none;stroke-opacity:1"
           transform="scale(1.3333333,1.3332467)" />
        <path
           id="path81"
           d="m 3388.744,2103.103 c 61.893,-13.537 114.68,-54.752 178.155,-62.639 14.483,-1.078 42.492,-0.657 46.499,11.631 -12.355,20.461 -28.381,40.471 -31.375,64.863 0.86,21.296 29.106,15.623 42.552,11.199 54.852,-20.47 110.865,-38.063 168.073,-50.662 l -97.309,111.202 97.309,-111.202"
           style="fill:none;stroke:#fbf236;stroke-width:46.7127;stroke-linecap:round;stroke-linejoin:round;stroke-miterlimit:4.4;stroke-dasharray:none;stroke-opacity:1"
           transform="matrix(1.3333333,0.06438867,-0.0643928,1.3332467,0,0)" />
        <path
           id="path82"
           d="m 3354.868,2321.71 c 61.89,-13.536 114.68,-54.752 178.155,-62.638 14.479,-1.082 42.488,-0.658 46.499,11.63 -12.356,20.461 -28.385,40.467 -31.379,64.863 0.86,21.292 29.11,15.619 42.553,11.2 54.855,-20.471 110.864,-38.063 168.076,-50.667"
           style="fill:none;stroke:#fbf236;stroke-width:46.7127;stroke-linecap:round;stroke-linejoin:round;stroke-miterlimit:4.4;stroke-dasharray:none;stroke-opacity:1"
           transform="matrix(1.3333333,0.06438867,-0.0643928,1.3332467,0,0)" />
        <path
           id="path83"
           d="m 3695.339,2188.697 63.433,107.401"
           style="fill:#e4ff1e;fill-opacity:1;fill-rule:nonzero;stroke:#fbf236;stroke-width:46.7127;stroke-linecap:round;stroke-linejoin:round;stroke-miterlimit:4.4;stroke-dasharray:none;stroke-opacity:1"
           transform="matrix(1.3333333,0.06438867,-0.0643928,1.3332467,0,0)" />
        <path
           id="path84"
           d="m 3084.043,2628.078 c 0,0 382.407,47.986 640.694,152.031"
           style="fill:#03a436;fill-opacity:1;fill-rule:nonzero;stroke:#fbf236;stroke-width:46.7127;stroke-linecap:round;stroke-linejoin:round;stroke-miterlimit:4.4;stroke-dasharray:none;stroke-opacity:1"
           transform="matrix(1.3333333,0.06438867,-0.0643928,1.3332467,0,0)" />
        <path
           id="path85"
           d="m 3392.584,2014.537 -113.692,638.149"
           style="fill:none;stroke:#fbf236;stroke-width:46.7127;stroke-linecap:round;stroke-linejoin:round;stroke-miterlimit:4.4;stroke-dasharray:none;stroke-opacity:1"
           transform="matrix(1.3333333,0.06438867,-0.0643928,1.3332467,0,0)" />
        <path
           id="path86"
           d="m 2053.061,2111.842 c 290.418,-139.498 608.602,-221.321 930.454,-237.511"
           style="fill:none;stroke:#ffffff;stroke-width:46.2722;stroke-linecap:round;stroke-linejoin:round;stroke-miterlimit:4.4;stroke-dasharray:none;stroke-opacity:1"
           transform="matrix(1.3333333,0.19551733,-0.19553067,1.3332467,0,0)" />
        <path
           id="path87"
           d="m 2983.515,1874.331 c 0,0 8.032,-64.592 -24.862,-158.087"
           style="fill:none;stroke:#ffffff;stroke-width:46.2722;stroke-linecap:round;stroke-linejoin:round;stroke-miterlimit:4.4;stroke-dasharray:none;stroke-opacity:1"
           transform="matrix(1.3333333,0.19551733,-0.19553067,1.3332467,0,0)" />
        <path
           id="path88"
           d="m 1096.992,2712.216 -93.531,-280.6 z"
           style="fill:none;stroke:#ffffff;stroke-width:46.7671;stroke-linecap:round;stroke-linejoin:round;stroke-miterlimit:4.4;stroke-dasharray:none;stroke-opacity:1"
           transform="scale(1.3333333,1.3332467)" />
        <path
           id="path89"
           d="m 1096.992,2712.216 187.07,-93.533 z"
           style="fill:none;stroke:#ffffff;stroke-width:46.7671;stroke-linecap:round;stroke-linejoin:round;stroke-miterlimit:4.4;stroke-dasharray:none;stroke-opacity:1"
           transform="scale(1.3333333,1.3332467)" />
        <path
           id="path90"
           d="m 1284.062,2618.683 374.137,-93.534 z"
           style="fill:none;stroke:#ffffff;stroke-width:46.7671;stroke-linecap:round;stroke-linejoin:round;stroke-miterlimit:4.4;stroke-dasharray:none;stroke-opacity:1"
           transform="scale(1.3333333,1.3332467)" />
        <path
           id="path91"
           d="m 1003.461,2431.616 187.066,-93.538 z"
           style="fill:none;stroke:#ffffff;stroke-width:46.7671;stroke-linecap:round;stroke-linejoin:round;stroke-miterlimit:4.4;stroke-dasharray:none;stroke-opacity:1"
           transform="scale(1.3333333,1.3332467)" />
        <path
           id="path92"
           d="m 1190.527,2338.078 93.535,280.605 z"
           style="fill:none;stroke:#ffffff;stroke-width:46.7671;stroke-linecap:round;stroke-linejoin:round;stroke-miterlimit:4.4;stroke-dasharray:none;stroke-opacity:1"
           transform="scale(1.3333333,1.3332467)" />
        <path
           id="path93"
           d="m 1096.992,2712.216 374.137,-93.533 z"
           style="fill:none;stroke:#ffffff;stroke-width:46.7671;stroke-linecap:round;stroke-linejoin:round;stroke-miterlimit:4.4;stroke-dasharray:none;stroke-opacity:1"
           transform="scale(1.3333333,1.3332467)" />
        <path
           id="path94"
           d="m 1471.129,2618.683 187.07,-93.534 z"
           style="fill:none;stroke:#ffffff;stroke-width:46.7671;stroke-linecap:round;stroke-linejoin:round;stroke-miterlimit:4.4;stroke-dasharray:none;stroke-opacity:1"
           transform="scale(1.3333333,1.3332467)" />
        <path
           id="path95"
           d="m 1658.199,2525.149 -93.535,-280.604 z"
           style="fill:none;stroke:#ffffff;stroke-width:46.7671;stroke-linecap:round;stroke-linejoin:round;stroke-miterlimit:4.4;stroke-dasharray:none;stroke-opacity:1"
           transform="scale(1.3333333,1.3332467)" />
        <path
           id="path96"
           d="m 1541.289,2478.994 -46.766,-140.298 z"
           style="fill:none;stroke:#ffffff;stroke-width:46.7671;stroke-linecap:round;stroke-linejoin:round;stroke-miterlimit:4.4;stroke-dasharray:none;stroke-opacity:1"
           transform="scale(1.3333333,1.3332467)" />
        <path
           id="path97"
           d="m 1377.594,2520.86 -46.766,-140.298 z"
           style="fill:none;stroke:#ffffff;stroke-width:46.7671;stroke-linecap:round;stroke-linejoin:round;stroke-miterlimit:4.4;stroke-dasharray:none;stroke-opacity:1"
           transform="scale(1.3333333,1.3332467)" />
        <path
           id="path98"
           d="m 1190.527,2338.078 374.137,-93.533 z"
           style="fill:none;stroke:#ffffff;stroke-width:46.7671;stroke-linecap:round;stroke-linejoin:round;stroke-miterlimit:4.4;stroke-dasharray:none;stroke-opacity:1"
           transform="scale(1.3333333,1.3332467)" />
        <path
           id="path99"
           d="m 985.68,2210.226 c 0,0 118.297,102.179 262.191,35.264 -100.574,-99.795 -262.191,-35.264 -262.191,-35.264 z"
           style="fill:#03a436;fill-opacity:1;fill-rule:nonzero;stroke:#03a436;stroke-width:26.7091;stroke-linecap:round;stroke-linejoin:round;stroke-miterlimit:4.4;stroke-dasharray:none;stroke-opacity:1"
           transform="scale(1.3333333,1.3332467)" />
        <path
           id="path100"
           d="m 734.922,2858.081 c 79.285,-59.074 164.195,-110.683 253.574,-153.006"
           style="fill:none;stroke:#ffffff;stroke-width:46.7672;stroke-linecap:round;stroke-linejoin:round;stroke-miterlimit:4.4;stroke-dasharray:none;stroke-opacity:1"
           transform="scale(1.3333333,1.3332467)" />
        <path
           id="path101"
           d="m 783.812,2702.731 c 55.766,-36.35 113.911,-69.051 174.079,-97.541"
           style="fill:none;stroke:#ffffff;stroke-width:46.7672;stroke-linecap:round;stroke-linejoin:round;stroke-miterlimit:4.4;stroke-dasharray:none;stroke-opacity:1"
           transform="scale(1.3333333,1.3332467)" />
        <path
           id="path102"
           d="m 827.406,2554.78 c 31.106,-17.65 62.844,-34.17 95.172,-49.476"
           style="fill:none;stroke:#ffffff;stroke-width:46.7672;stroke-linecap:round;stroke-linejoin:round;stroke-miterlimit:4.4;stroke-dasharray:none;stroke-opacity:1"
           transform="scale(1.3333333,1.3332467)" />
        <path
           id="path103"
           d="m 716.531,2395.207 c 55.766,-36.354 113.91,-69.051 174.082,-97.541"
           style="fill:none;stroke:#ffffff;stroke-width:46.7672;stroke-linecap:round;stroke-linejoin:round;stroke-miterlimit:4.4;stroke-dasharray:none;stroke-opacity:1"
           transform="scale(1.3333333,1.3332467)" />
      </g>
      <g
         id="g2"
         transform="matrix(0.07143727,0,0,0.07143727,23.622612,-107.93639)">
        <path
           id="path104"
           d="m 3648.191,1296.812 c -13.976,13.829 -27.832,27.684 -41.855,41.645 v 334.578 l 41.855,41.848 h 250.707 l 41.852,-41.848 v -334.578 c -19.672,-19.969 -2.176,-1.961 -41.852,-41.645 z m 41.649,83.497 h 167.41 v 250.882 h -167.41 z"
           style="fill:#ffffff;fill-opacity:1;fill-rule:nonzero;stroke:none"
           transform="scale(1.3333333)" />
        <path
           id="path105"
           d="m 3606.336,1338.544 41.855,-41.647 h 250.707 l 41.852,41.647 v 334.6 l -41.852,41.851 h -250.707 l -41.855,-41.851 z"
           style="fill:none;stroke:#ffffff;stroke-width:26.1325;stroke-linecap:round;stroke-linejoin:round;stroke-miterlimit:4.4;stroke-dasharray:none;stroke-opacity:1"
           transform="scale(1.3333333,1.3332467)" />
        <path
           id="path106"
           d="m 3219.496,1296.75 -10.453,10.449 -31.359,31.36 v 376.281 h 292.683 l 10.453,-10.449 31.36,-31.36 v -125.426 l -41.813,-41.812 10.453,-10.449 31.36,-31.36 v -125.425 l -31.36,-31.36 -10.453,-10.449 z m 41.813,83.617 h 167.246 v 83.617 h -167.246 z m 0,167.238 h 167.246 v 83.618 h -167.246 z"
           style="fill:#ffffff;fill-opacity:1;fill-rule:nonzero;stroke:none"
           transform="scale(1.3333333)" />
        <path
           id="path107"
           d="m 3177.684,1338.646 41.812,-41.811 h 250.871 l 41.813,41.811 v 125.434 l -41.813,41.811 41.813,41.815 v 125.434 l -41.813,41.812 h -292.683 z"
           style="fill:none;stroke:#ffffff;stroke-width:26.1325;stroke-linecap:round;stroke-linejoin:round;stroke-miterlimit:4.4;stroke-dasharray:none;stroke-opacity:1"
           transform="scale(1.3333333,1.3332467)" />
        <path
           id="path108"
           d="m 2790.922,1296.754 -41.813,41.812 v 376.282 h 83.625 v -83.618 h 167.25 v 83.618 h 83.621 v -376.282 l -41.812,-41.812 z m 41.812,83.621 h 167.25 v 167.238 h -167.25 z"
           style="fill:#ffffff;fill-opacity:1;fill-rule:nonzero;stroke:none"
           transform="scale(1.3333333)" />
        <path
           id="path109"
           d="m 2749.109,1714.96 h 83.625 v -83.623 h 167.25 v 83.623 h 83.621 v -376.306 l -41.812,-41.815 h -250.871 l -41.813,41.815 z"
           style="fill:none;stroke:#ffffff;stroke-width:26.1325;stroke-linecap:round;stroke-linejoin:round;stroke-miterlimit:4.4;stroke-dasharray:none;stroke-opacity:1"
           transform="scale(1.3333333,1.3332467)" />
        <path
           id="path110"
           d="m 2320.539,1296.754 v 376.285 l 41.813,41.809 h 292.683 V 1631.23 H 2404.16 v -334.476 z"
           style="fill:#ffffff;fill-opacity:1;fill-rule:nonzero;stroke:none"
           transform="scale(1.3333333)" />
        <path
           id="path111"
           d="M 2655.035,1631.337 H 2404.16 v -334.498 h -83.621 v 376.309 l 41.813,41.812 h 292.683 z"
           style="fill:none;stroke:#ffffff;stroke-width:26.1325;stroke-linecap:round;stroke-linejoin:round;stroke-miterlimit:4.4;stroke-dasharray:none;stroke-opacity:1"
           transform="scale(1.3333333,1.3332467)" />
        <path
           id="path112"
           d="m 1774.398,1296.781 c -13.972,13.824 -27.828,27.684 -41.851,41.641 V 1673 l 41.855,41.848 h 250.707 L 2066.961,1673 v -334.578 c -19.676,-19.969 -2.18,-1.961 -41.852,-41.641 z m 41.649,83.496 h 167.414 v 250.879 h -167.414 z"
           style="fill:#ffffff;fill-opacity:1;fill-rule:nonzero;stroke:none"
           transform="scale(1.3333333)" />
        <path
           id="path113"
           d="m 1732.547,1338.509 41.851,-41.643 h 250.711 l 41.852,41.643 v 334.6 l -41.852,41.851 h -250.707 l -41.855,-41.851 z"
           style="fill:none;stroke:#ffffff;stroke-width:26.1325;stroke-linecap:round;stroke-linejoin:round;stroke-miterlimit:4.4;stroke-dasharray:none;stroke-opacity:1"
           transform="scale(1.3333333,1.3332467)" />
        <path
           id="path114"
           d="m 1304.016,1296.789 v 83.617 h 125.433 v 334.477 h 83.625 v -334.477 h 125.438 v -83.617 z"
           style="fill:#ffffff;fill-opacity:1;fill-rule:nonzero;stroke:none"
           transform="scale(1.3333333)" />
        <path
           id="path115"
           d="m 1304.016,1380.496 v -83.622 h 334.496 v 83.622 h -125.438 v 334.499 h -83.625 v -334.499 z"
           style="fill:none;stroke:#ffffff;stroke-width:26.1325;stroke-linecap:round;stroke-linejoin:round;stroke-miterlimit:4.4;stroke-dasharray:none;stroke-opacity:1"
           transform="scale(1.3333333,1.3332467)" />
        <path
           id="path116"
           d="m 917.336,1296.871 c -13.977,13.824 -27.832,27.684 -41.852,41.641 v 334.578 l 41.852,41.848 h 250.707 l 41.852,-41.848 v -334.578 c -19.672,-19.969 -2.176,-1.961 -41.852,-41.641 z m 41.648,83.496 h 167.411 v 250.879 H 958.984 Z"
           style="fill:#ffffff;fill-opacity:1;fill-rule:nonzero;stroke:none"
           transform="scale(1.3333333)" />
        <path
           id="path117"
           d="m 875.484,1338.599 41.852,-41.643 h 250.707 l 41.852,41.643 v 334.6 l -41.852,41.85 H 917.336 l -41.852,-41.85 z"
           style="fill:none;stroke:#ffffff;stroke-width:26.1325;stroke-linecap:round;stroke-linejoin:round;stroke-miterlimit:4.4;stroke-dasharray:none;stroke-opacity:1"
           transform="scale(1.3333333,1.3332467)" />
        <path
           id="path118"
           d="m 488.68,1296.789 -41.813,41.809 v 376.285 h 292.684 l 41.812,-41.813 v -125.425 l -41.812,-41.809 41.812,-41.813 v -125.425 l -41.812,-41.809 z m 41.812,83.617 h 167.25 v 83.617 h -167.25 z m 0,167.239 h 167.25 v 83.617 h -167.25 z"
           style="fill:#ffffff;fill-opacity:1;fill-rule:nonzero;stroke:none"
           transform="scale(1.3333333)" />
        <path
           id="path119"
           d="m 446.867,1338.685 41.813,-41.811 h 250.871 l 41.812,41.811 v 125.434 l -41.812,41.815 41.812,41.812 v 125.434 l -41.812,41.815 H 446.867 Z"
           style="fill:none;stroke:#ffffff;stroke-width:26.137;stroke-linecap:round;stroke-linejoin:round;stroke-miterlimit:4.4;stroke-dasharray:none;stroke-opacity:1"
           transform="scale(1.3333333,1.3332467)" />
      </g>
    </g>
  </g>
</svg>
